<?xml version="1.0" encoding="utf-8"?>
<!-- Generator: Adobe Illustrator 16.0.0, SVG Export Plug-In . SVG Version: 6.00 Build 0)  -->
<!DOCTYPE svg PUBLIC "-//W3C//DTD SVG 1.1//EN" "http://www.w3.org/Graphics/SVG/1.1/DTD/svg11.dtd">
<svg version="1.1" id="Layer_1" xmlns="http://www.w3.org/2000/svg" xmlns:xlink="http://www.w3.org/1999/xlink" x="0px" y="0px"
	 width="209.017px" height="15.934px" viewBox="0 0 209.017 15.934" enable-background="new 0 0 209.017 15.934"
	 xml:space="preserve">
<g>
	<defs>
		<rect id="SVGID_1_" x="-24.904" y="-14.068" width="268.099" height="45.582"/>
	</defs>
	<clipPath id="SVGID_2_">
		<use xlink:href="#SVGID_1_"  overflow="visible"/>
	</clipPath>
</g>
<g>
	<path d="M10.042,5.222C9.789,1.402,8.841,0.71,7.322,0.71H6.905c-0.253,0-0.337,0.043-0.344,0.379v13.894
		c0.002,0.314,0.382,0.488,0.956,0.488c0.145,0,0.461,0.004,0.714-0.064c-0.018,0.068-0.018,0.447,0,0.537
		c-0.737,0.016-2.091,0.016-2.815,0.016c-0.832,0-2.045,0-3.041-0.016c0.018-0.09,0.018-0.447,0-0.537
		c0.235,0.045,0.533,0.064,0.678,0.064c0.452,0,0.946-0.039,0.956-0.488V1.089C4.014,0.798,3.9,0.71,3.647,0.71h-0.29
		c-1.918,0-2.72,1.116-2.865,4.512C0.419,5.199,0.054,5.199,0,5.222c0.072-0.983,0.099-4.19,0.027-5.084h5.487h4.967
		c-0.072,0.916-0.001,4.168,0.053,5.084C10.48,5.199,10.097,5.222,10.042,5.222"/>
	<path d="M47.882,8.756c-0.512,0-0.772-0.079-1.279-0.088c-0.031-0.001-0.412-0.001-0.442-0.001c-0.235,0-0.266,0.157-0.266,0.402
		l-0.001,5.809c0.012,0.341,0.314,0.599,0.972,0.599c0.163,0,0.469-0.034,0.705-0.057c-0.019,0.09-0.035,0.568,0.032,0.568h-2.792
		h-2.922c0.091,0,0.033-0.463,0.016-0.552c0.198,0.044,0.532,0.066,0.677,0.066c0.344,0,0.783-0.09,0.801-0.559L43.376,1.072
		c-0.019-0.357-0.522-0.402-0.83-0.402c-0.181,0-0.479,0.045-0.66,0.067c0.019-0.089,0.116-0.571,0.003-0.571h2.97
		c0.714,0,2.055,0.001,2.809,0h0.244c2.388,0.022,3.515,1.309,3.515,4.413C51.427,7.349,50.162,8.756,47.882,8.756 M47.031,0.716
		c-0.03-0.001-0.529-0.001-0.56-0.001c-0.329,0-0.599,0.11-0.606,0.514l0.007,6.433c0,0.444,0.081,0.555,0.419,0.576
		c0.053,0.003,0.346,0.005,0.411,0.005c1.394,0,2.263-0.76,2.263-3.619C48.965,1.495,48.496,0.745,47.031,0.716"/>
	<path d="M111.062,15.807c-1.515,0.025-8.268,0.025-10,0c0.113,0.002,0.034-0.495,0.016-0.584c0.272,0.045,0.569,0.064,0.75,0.064
		c0.66,0,0.867-0.237,0.879-0.533L102.693,0.95c-0.016-0.337-0.228-0.444-0.92-0.444c-0.145,0-0.442-0.003-0.696,0.041
		c0.018-0.067,0.112-0.538,0-0.536c1.429-0.026,7.546,0,9.5,0c-0.037,0.536,0.018,3.976,0.107,4.914c-0.072,0-0.4,0-0.475,0.023
		c-0.389-3.756-1.051-4.401-4.106-4.401h-0.292c-0.489,0-0.566,0.067-0.584,0.693l-0.01,5.539c0,0.603,0.194,0.738,0.592,0.738
		c1.519,0,2.162-0.852,2.181-3.463h0.546c-0.09,1.43-0.108,6.233,0,7.528c-0.072,0-0.491-0.023-0.546,0
		c-0.017-2.951-0.579-3.642-2.181-3.642c-0.434,0-0.592,0.179-0.592,0.714l-0.003,5.116c0.046,1.243,0.388,1.452,1.013,1.452h0.51
		c2.949,0,3.862-1.262,3.944-4.848c0.054,0,0.456,0,0.51-0.022C111.119,11.47,111.025,15.293,111.062,15.807"/>
	<path d="M100.236,9.248c-0.836-0.02-2.947,0.02-4.012,0.008c0.089-0.665,0.034-1.007,0.017-1.15
		c0.789-0.013,3.291,0.004,3.995-0.013C100.156,8.371,100.22,9.084,100.236,9.248"/>
	<path d="M123.541,1.883c-0.183-0.041-0.299-0.062-0.433-0.062c-0.911,0-1.036,0.201-1.073,2.039
		c-0.018,0.412,0.022,12.074,0.022,12.074h-1.233c-0.135-0.556-0.537-1.33-0.92-2.131c-0.434-0.905-4.523-9.257-4.873-10.161
		c0,0-0.158-0.264-0.224-0.267c0,0-0.019,0.148-0.012,0.702l0.018,0.786l-0.01,7.871c0.032,0.658,0.045,1.151,0.062,1.52
		c0.047,0.53,0.082,1.214,1.185,1.214c0.1,0,0.216-0.021,0.399-0.041c-0.017,0.083-0.017,0.432,0,0.492
		c-0.625,0.016-1.439,0.016-1.938,0.016c-0.466,0-1.274,0-1.735-0.016c0.018-0.061,0.018-0.39,0-0.472
		c0.233,0.041,0.35,0.041,0.449,0.041c0.66,0,0.986-0.23,1.008-1.341l0.006-11.894c-0.015-0.289-0.328-0.428-0.91-0.428
		c-0.117,0-0.353,0.017-0.553,0.058c0.018-0.062,0.022-0.422,0.022-0.505h1.892h1.852c0.434,1.13,3.961,8.039,4.178,8.511
		c0.016,0.041,0.35,0.822,0.398,0.947c0.051,0.121,0.209,0.349,0.274,0.349c0.101,0,0.076-0.177,0.076-1.041l0.003-4.87
		c-0.001-0.93-0.004-2.367-0.068-2.706c-0.103-0.532-0.479-0.726-1.002-0.726c-0.115,0-0.283,0.02-0.482,0.062
		c0.017-0.083,0.025-0.443,0.01-0.526h1.712h1.872C123.494,1.44,123.525,1.821,123.541,1.883"/>
	<path d="M184.99,15.934h-2.779c0.104,0,0.005-0.426-0.012-0.508c0.216,0.062,0.507,0.058,0.64,0.058
		c0.635,0,0.918-0.16,0.946-0.428V2.211c-0.012-0.187-0.19-0.345-0.88-0.345c-0.133,0-0.439-0.004-0.706,0.037
		c0.017-0.061,0.014-0.422-0.002-0.525h2.808c0.683,0,1.891-0.032,2.644,0c0,0.082,0.005,0.464,0.021,0.525
		c-0.25-0.041-0.523-0.037-0.656-0.037c-0.619,0-0.902,0.193-0.88,0.421v12.765c0.017,0.268,0.207,0.432,0.83,0.432
		c0.133,0,0.439-0.017,0.706-0.058c-0.017,0.062-0.083,0.495,0,0.493C186.916,15.934,185.672,15.934,184.99,15.934"/>
	<path d="M134.084,6.046c-0.233-3.514-1.104-4.151-2.503-4.151h-0.384c-0.232,0-0.309,0.041-0.316,0.349v12.783
		c0.002,0.208,0.137,0.473,0.666,0.473c0.132,0,0.423-0.021,0.656-0.082c-0.017,0.062-0.021,0.435-0.004,0.517h-2.464h-2.494
		c0.017-0.082,0.021-0.435,0.004-0.517c0.217,0.041,0.491,0.082,0.624,0.082c0.416,0,0.655-0.06,0.664-0.473V2.244
		c0.005-0.268-0.1-0.349-0.333-0.349h-0.267c-1.765,0-2.502,1.028-2.636,4.151c-0.067-0.02-0.403-0.02-0.452,0
		c0.066-0.904,0.066-3.822,0-4.644c1.514-0.024,8.399-0.024,9.691,0c-0.068,0.842-0.051,3.802,0,4.644
		C134.486,6.026,134.134,6.046,134.084,6.046"/>
	<path d="M181.394,15.934h-1.628c-1.865,0-2.573-0.517-2.723-2.941l-0.083-1.314c-0.034-0.639-0.034-1.505-0.283-2.08
		c-0.317-0.762-0.835-0.683-1.235-0.683h-1.184c-0.266,0-0.416,0-0.416,0.35l0.002,5.782c0.018,0.35,0.623,0.408,0.79,0.408
		c0.183,0,0.457,0.003,0.64-0.038c-0.017,0.062-0.088,0.517-0.004,0.517h-2.554h-2.614c0.084,0,0.033-0.435,0.018-0.517
		c0.2,0.021,0.489,0.038,0.64,0.038c0.349,0,0.741-0.059,0.758-0.428l0.01-12.803c-0.012-0.181-0.226-0.347-0.851-0.347
		c-0.1,0-0.356-0.003-0.541,0.038c0.017-0.082,0.029-0.435,0.012-0.538c0.971,0,2.115,0,2.838,0h0.464h2.732
		c2.137,0,2.897,1.961,2.897,3.628c0,1.849-1.237,3.253-2.336,3.376c-0.167,0-0.31,0.096-0.31,0.199c0,0.165,0.209,0.124,0.31,0.143
		c2.141,0.437,2.536,2.029,2.651,3.611c0.033,0.391,0.051,0.781,0.067,1.15c0.016,0.371,0.033,0.699,0.083,0.987
		c0.1,0.597,0.764,1.003,1.312,1.003c0.15,0,0.374-0.017,0.541-0.037C181.38,15.52,181.377,15.873,181.394,15.934 M175.192,1.875
		c-0.02-0.001-0.686-0.001-0.706-0.001c-0.316,0-0.633,0.082-0.648,0.452l0.004,5.747c0,0.369,0.1,0.411,0.466,0.411
		c0.019,0,0.508,0,0.525-0.001c0.428-0.004,0.791-0.066,1.059-0.222c0.733-0.428,0.896-1.77,0.896-2.901
		C176.787,3.244,176.268,1.92,175.192,1.875"/>
	<path d="M165.273,9.272c-0.471,0-0.71-0.073-1.177-0.081c-0.028-0.001-0.379-0.001-0.406-0.001c-0.217,0-0.245,0.144-0.245,0.371
		l-0.001,5.344c0.014,0.352,0.324,0.551,0.895,0.551c0.149,0,0.474-0.018,0.69-0.038c-0.017,0.082-0.044,0.455-0.044,0.517h-2.524
		h-2.703c0.017-0.083,0.033-0.435,0.017-0.517c0.184,0.041,0.49,0.062,0.623,0.062c0.316,0,0.72-0.082,0.737-0.514l-0.007-12.762
		c-0.018-0.329-0.48-0.346-0.764-0.346c-0.166,0-0.439,0.017-0.606,0.038c0.017-0.083,0.017-0.415,0-0.518h2.732
		c0.732,0,1.905,0.001,2.6,0h0.179c2.198,0.021,3.266,1.196,3.266,4.052C168.534,7.979,167.371,9.272,165.273,9.272 M164.49,1.875
		c-0.028-0.001-0.486-0.001-0.515-0.001c-0.303,0-0.562,0.125-0.557,0.473l0.006,5.918c0,0.409,0.074,0.511,0.385,0.53
		c0.049,0.003,0.319,0.004,0.378,0.004c1.283,0,2.083-0.698,2.083-3.329C166.271,2.593,165.839,1.902,164.49,1.875"/>
	<path d="M158.904,15.934h-1.627c-1.863,0-2.572-0.54-2.723-2.965l-0.083-1.316c-0.033-0.637-0.033-1.504-0.283-2.08
		c-0.315-0.759-0.835-0.681-1.234-0.681h-1.184c-0.267,0-0.417,0-0.417,0.349l0.003,5.783c0.011,0.229,0.341,0.433,0.789,0.433
		c0.185,0,0.457-0.022,0.642-0.062c-0.018,0.062-0.022,0.458-0.006,0.54h-2.539h-2.612c0.016-0.082,0.018-0.458,0.001-0.54
		c0.2,0.021,0.491,0.062,0.64,0.062c0.351,0,0.742-0.083,0.759-0.453L149.04,2.2c-0.015-0.207-0.215-0.346-0.853-0.346
		c-0.099,0-0.356-0.003-0.54,0.037c0.018-0.082,0-0.41-0.017-0.513c0.865,0,2.128-0.001,2.851,0h0.493h2.689
		c2.137,0,2.927,1.961,2.927,3.627c0,1.85-1.238,3.229-2.337,3.352c-0.166,0-0.309,0.097-0.309,0.2c0,0.164,0.209,0.123,0.309,0.143
		c2.141,0.437,2.536,2.029,2.652,3.611c0.033,0.391,0.05,0.781,0.066,1.15c0.016,0.371,0.033,0.7,0.084,0.986
		c0.1,0.597,0.763,1.005,1.311,1.005c0.151,0,0.375-0.019,0.541-0.038C158.893,15.497,158.889,15.873,158.904,15.934 M152.706,1.852
		c-0.021-0.001-0.687-0.001-0.707-0.001c-0.316,0-0.634,0.082-0.649,0.452l0.004,5.746c0,0.37,0.101,0.411,0.466,0.411
		c0.019,0,0.509,0,0.526,0c0.428-0.005,0.791-0.066,1.058-0.222c0.733-0.428,0.896-1.747,0.896-2.877
		C154.299,3.243,153.779,1.897,152.706,1.852"/>
	<path d="M63.923,15.934h-1.628c-1.864,0-2.557-0.54-2.707-2.965l-0.083-1.316c-0.034-0.637-0.034-1.527-0.283-2.104
		c-0.317-0.759-0.836-0.657-1.235-0.657h-1.184c-0.266,0-0.416,0-0.416,0.349l0.002,5.783c0.017,0.35,0.623,0.433,0.789,0.433
		c0.184,0,0.457-0.022,0.64-0.062c-0.016,0.062-0.102,0.54-0.018,0.54h-2.525h-2.628c0.083,0,0.033-0.458,0.016-0.54
		c0.2,0.021,0.491,0.062,0.641,0.062c0.349,0,0.741-0.083,0.758-0.453L54.072,2.2c-0.014-0.207-0.249-0.37-0.851-0.37
		c-0.1,0-0.358,0.021-0.541,0.061c0.017-0.082,0.088-0.513-0.017-0.513h6.033c2.138,0,2.927,1.961,2.927,3.627
		c0,1.85-1.238,3.229-2.336,3.352c-0.167,0-0.309,0.097-0.309,0.2c0,0.164,0.209,0.123,0.309,0.143
		c2.141,0.437,2.535,2.029,2.652,3.611c0.033,0.391,0.05,0.781,0.067,1.15c0.016,0.371,0.033,0.7,0.083,0.986
		c0.1,0.597,0.762,1.037,1.311,1.037c0.15,0,0.327-0.053,0.493-0.072C63.876,15.495,63.906,15.873,63.923,15.934 M57.738,1.852
		c-0.02-0.001-0.686-0.001-0.707-0.001c-0.316,0-0.632,0.082-0.649,0.452l0.005,5.746c0,0.37,0.1,0.411,0.466,0.411
		c0.017,0,0.508,0,0.525,0c0.428-0.005,0.791-0.066,1.058-0.222c0.734-0.428,0.895-1.747,0.895-2.877
		C59.331,3.243,58.813,1.897,57.738,1.852"/>
	<path d="M145.403,15.911c-1.419,0.023-7.474,0.023-9.201,0c0.017-0.104,0.012-0.432-0.005-0.513c0.25,0.04,0.523,0.058,0.69,0.058
		c0.607,0,0.797-0.218,0.809-0.49l-0.013-12.701c-0.015-0.309-0.209-0.407-0.847-0.407c-0.133,0-0.406-0.004-0.64,0.038
		c0.017-0.062-0.029-0.415-0.029-0.518c1-0.023,2.629,0,3.494,0h5.243c-0.033,0.494,0.049,3.682,0.132,4.546
		c-0.067,0-0.37,0-0.437,0.02c-0.357-3.455-0.967-4.048-3.777-4.048h-0.271c-0.448,0-0.52,0.061-0.537,0.637l-0.009,5.096
		c0,0.555,0.18,0.678,0.545,0.678c1.397,0,1.989-0.783,2.006-3.185h0.502c-0.082,1.315-0.099,5.734,0,6.926
		c-0.065,0-0.451-0.021-0.502,0c-0.016-2.716-0.532-3.35-2.006-3.35c-0.399,0-0.545,0.164-0.545,0.657l-0.003,4.707
		c0.042,1.143,0.358,1.337,0.933,1.337h0.469c2.714,0,3.553-1.162,3.629-4.46c0.05,0,0.419,0,0.469-0.021
		C145.437,11.944,145.369,15.438,145.403,15.911"/>
	<path d="M208.932,15.934c-1.39,0.023-7.543,0-9.245,0c0.104,0,0.042-0.455,0.024-0.537c0.25,0.041,0.524,0.06,0.69,0.06
		c0.607,0,0.797-0.22,0.808-0.491l-0.012-12.7c-0.014-0.31-0.209-0.408-0.846-0.408c-0.133,0-0.407-0.003-0.641,0.038
		c0.018-0.062,0.035-0.414,0.035-0.517h3.436h5.243c-0.034,0.493,0.043,3.682,0.126,4.545c-0.066,0-0.369,0-0.437,0.02
		c-0.357-3.454-0.967-4.048-3.779-4.048h-0.269c-0.449,0-0.521,0.062-0.537,0.637l-0.009,5.096c0,0.555,0.179,0.678,0.545,0.678
		c1.397,0,1.99-0.783,2.006-3.185h0.503c-0.083,1.316-0.1,5.734,0,6.926c-0.065,0-0.452-0.02-0.503,0
		c-0.015-2.715-0.533-3.35-2.006-3.35c-0.4,0-0.545,0.165-0.545,0.658l-0.003,4.706c0.043,1.144,0.357,1.336,0.933,1.336h0.468
		c2.715,0,3.555-1.161,3.63-4.46c0.05,0,0.419,0,0.469-0.021C208.949,11.944,208.897,15.461,208.932,15.934"/>
	<path d="M73.808,15.934h-4.003h-5.212c0.104,0,0.029-0.455,0.012-0.537c0.25,0.041,0.524,0.06,0.69,0.06
		c0.607,0,0.798-0.22,0.808-0.491l-0.012-12.7c-0.015-0.31-0.209-0.408-0.846-0.408c-0.133,0-0.407-0.003-0.64,0.038
		c0.017-0.062,0.103-0.496,0-0.493c1.088-0.024,6.912-0.024,8.71-0.024c-0.033,0.493,0.046,3.682,0.129,4.545
		c-0.066,0-0.369,0-0.436,0.02c-0.358-3.454-0.967-4.048-3.778-4.048h-0.27c-0.449,0-0.52,0.062-0.537,0.637l-0.009,5.096
		c0,0.555,0.179,0.678,0.545,0.678c1.398,0,1.989-0.783,2.007-3.185h0.502c-0.083,1.316-0.1,5.734,0,6.926
		c-0.067,0-0.453-0.02-0.502,0c-0.016-2.715-0.533-3.35-2.007-3.35c-0.399,0-0.545,0.165-0.545,0.658l0.019,4.706
		c0.006,0.962,0.336,1.336,0.911,1.336h0.468c2.714,0,3.553-1.161,3.629-4.46c0.05,0,0.419,0,0.469-0.021
		C73.844,11.944,73.774,15.461,73.808,15.934"/>
	<path d="M33.994,15.934h-3.943h-5.197c0.104,0,0.016-0.455,0-0.537c0.249,0.041,0.523,0.06,0.69,0.06
		c0.607,0,0.797-0.22,0.808-0.491L26.317,2.208c-0.015-0.309-0.186-0.351-0.823-0.351c-0.133,0-0.407-0.003-0.64,0.038
		c0.016-0.062,0.102-0.495,0-0.493c1.408-0.024,6.941,0,8.739,0c-0.033,0.493,0.017,3.658,0.1,4.521c-0.067,0-0.369,0-0.436,0.02
		c-0.358-3.454-0.967-4.048-3.779-4.048h-0.269c-0.449,0-0.521,0.062-0.537,0.637l-0.009,5.096c0,0.555,0.179,0.678,0.545,0.678
		c1.398,0,1.989-0.783,2.006-3.185h0.503c-0.083,1.316-0.1,5.734,0,6.926c-0.067,0-0.453-0.02-0.503,0
		c-0.016-2.715-0.533-3.35-2.006-3.35c-0.399,0-0.545,0.165-0.545,0.658l-0.003,4.706c0.047,1.276,0.281,1.336,0.932,1.336h0.469
		c2.714,0,3.553-1.161,3.629-4.46c0.05,0,0.419,0,0.469-0.021C34.092,11.944,33.52,15.934,33.994,15.934"/>
	<path d="M94.473,11.756c0,3.021-1.597,4.422-4.659,4.422c-1.149,0-2.314-0.311-3.23-0.846c0.033-0.391-0.017-3.346-0.116-4.229
		h0.469c0.316,2.629,1.079,4.54,3.209,4.54c1.465,0,2.381-0.679,2.381-2.65c0-1.521-0.782-2.399-1.745-2.979
		c-0.631-0.381-1.244-0.74-1.762-1.047c-1.448-0.856-2.499-1.902-2.467-3.892c0.038-2.342,1.362-3.939,4.191-3.939
		c0.982,0,2.263,0.209,3.062,0.763c-0.083,0.617-0.1,2.976-0.067,3.325c0,0-0.352,0-0.469,0.022c-0.149-2.282-1.327-3.68-2.725-3.68
		c-1.598,0-2.346,0.971-2.346,2.406c0,0.841,0.111,1.761,1.811,2.77c0.442,0.262,2.375,1.409,2.819,1.736
		C93.921,9.285,94.473,10.21,94.473,11.756"/>
	<path d="M84.173,11.756c0,3.021-1.597,4.422-4.66,4.422c-1.148,0-2.313-0.311-3.229-0.846c0.033-0.391-0.017-3.346-0.116-4.229
		h0.469c0.316,2.629,1.078,4.54,3.21,4.54c1.464,0,2.379-0.679,2.379-2.65c0-1.521-0.781-2.399-1.744-2.979
		c-0.631-0.381-1.244-0.74-1.762-1.047c-1.448-0.856-2.499-1.902-2.467-3.892c0.037-2.342,1.361-3.939,4.191-3.939
		c0.982,0,2.263,0.209,3.062,0.763c-0.083,0.617-0.1,2.976-0.067,3.325c0,0-0.352,0-0.469,0.022c-0.15-2.282-1.327-3.68-2.725-3.68
		c-1.598,0-2.346,0.971-2.346,2.406c0,0.841,0.111,1.761,1.811,2.77c0.442,0.262,2.375,1.409,2.819,1.736
		C83.621,9.285,84.173,10.21,84.173,11.756"/>
	<path d="M197.846,11.764c0,3.021-1.597,4.422-4.658,4.422c-1.149,0-2.315-0.312-3.23-0.846c0.034-0.391-0.017-3.348-0.116-4.23
		h0.469c0.316,2.631,1.079,4.542,3.211,4.542c1.464,0,2.38-0.679,2.38-2.651c0-1.521-0.782-2.399-1.745-2.98
		c-0.631-0.379-1.244-0.738-1.763-1.045c-1.446-0.857-2.499-1.903-2.467-3.893c0.037-2.342,1.361-3.939,4.192-3.939
		c0.98,0,2.262,0.209,3.061,0.764c-0.083,0.616-0.1,2.976-0.065,3.325c0,0-0.354,0-0.471,0.021
		c-0.149-2.281-1.326-3.679-2.726-3.679c-1.597,0-2.345,0.971-2.345,2.405c0,0.842,0.111,1.761,1.811,2.77
		c0.443,0.263,2.375,1.409,2.818,1.736C197.294,9.291,197.846,10.217,197.846,11.764"/>
	<path d="M17.727,8.179c0.399,0,0.89-0.02,1.406-0.04c0.366-0.041,0.335-0.103,0.335-0.555l-0.002-5.282
		c-0.017-0.247-0.282-0.449-0.88-0.449c-0.133,0-0.407,0.018-0.64,0.059c0.017-0.083,0.104-0.493,0-0.493
		c1.099,0.011,4.385,0.011,5.388,0c-0.104,0.001-0.017,0.431,0,0.513c-0.266-0.041-0.557-0.038-0.69-0.038
		c-0.668,0-0.868,0.179-0.88,0.387v12.783c0.008,0.129,0.176,0.43,0.93,0.43c0.133,0,0.407-0.019,0.623-0.06
		c0,0.062,0,0.392,0.017,0.493c-0.913,0.015-4.498,0.015-5.388,0c0.017-0.061,0-0.41-0.017-0.513c0.25,0.04,0.557,0.058,0.724,0.058
		c0.527,0,0.788-0.172,0.796-0.408l0.019-5.938c0-0.37-0.002-0.411-0.351-0.432c-0.5-0.02-0.991-0.041-1.373-0.041 M17.896,8.661
		c-0.45,0-1.458,0.012-2.041,0.032c-0.35,0.021-0.357,0.103-0.357,0.473l0.024,5.919c0.001,0.229,0.329,0.387,0.913,0.387
		c0.133,0,0.407,0.003,0.64-0.038c-0.017,0.062-0.017,0.412,0,0.493c-0.706,0.015-4.321,0.015-5.405,0
		c0.017-0.102,0.017-0.431,0-0.493c0.217,0.041,0.491,0.038,0.624,0.038c0.619,0,0.89-0.157,0.896-0.305V2.344
		c-0.017-0.412-0.613-0.47-0.813-0.47c-0.166,0-0.457,0.017-0.707,0.058l0.017-0.041c0-0.062,0-0.37-0.017-0.472
		c0.865,0.011,4.589,0.011,5.405,0c-0.017,0.061-0.017,0.41,0,0.493c-0.216-0.041-0.383-0.038-0.516-0.038
		c-0.546,0-1.023,0.14-1.037,0.407l-0.024,5.118c0.017,0.616,0.024,0.719,0.34,0.74c0.583,0.04,1.549,0.029,1.999,0.029"/>
</g>
</svg>
